<svg width="36" height="36" viewBox="0 0 36 36" fill="none" xmlns="http://www.w3.org/2000/svg">
<rect width="36" height="36" rx="4" fill="white" fill-opacity="0.1"/>
<path d="M28 22.7397V10.6697C28 9.4697 27.02 8.5797 25.83 8.6797H25.77C23.67 8.8597 20.48 9.9297 18.7 11.0497L18.53 11.1597C18.24 11.3397 17.76 11.3397 17.47 11.1597L17.22 11.0097C15.44 9.8997 12.26 8.8397 10.16 8.6697C8.97 8.5697 8 9.4697 8 10.6597V22.7397C8 23.6997 8.78 24.5997 9.74 24.7197L10.03 24.7597C12.2 25.0497 15.55 26.1497 17.47 27.1997L17.51 27.2197C17.78 27.3697 18.21 27.3697 18.47 27.2197C20.39 26.1597 23.75 25.0497 25.93 24.7597L26.26 24.7197C27.22 24.5997 28 23.6997 28 22.7397Z" stroke="white" stroke-width="1.5" stroke-linecap="round" stroke-linejoin="round"/>
<path d="M18 11.4902V26.4902" stroke="white" stroke-width="1.5" stroke-linecap="round" stroke-linejoin="round"/>
<path d="M13.75 14.4902H11.5" stroke="white" stroke-width="1.5" stroke-linecap="round" stroke-linejoin="round"/>
<path d="M14.5 17.4902H11.5" stroke="white" stroke-width="1.5" stroke-linecap="round" stroke-linejoin="round"/>
</svg>
