<svg width="24" height="25" viewBox="0 0 24 25" fill="none" xmlns="http://www.w3.org/2000/svg">
<path d="M17.8831 18.0583L16.0997 14.5L14.3164 18.0583" stroke="#016BDD" stroke-width="1.5" stroke-linecap="round" stroke-linejoin="round"/>
<path d="M14.6416 17.4258H17.5749" stroke="#016BDD" stroke-width="1.5" stroke-linecap="round" stroke-linejoin="round"/>
<path d="M16.0995 20.8338C13.7662 20.8338 11.8662 18.9422 11.8662 16.6005C11.8662 14.2672 13.7579 12.3672 16.0995 12.3672C18.4329 12.3672 20.3329 14.2588 20.3329 16.6005C20.3329 18.9422 18.4412 20.8338 16.0995 20.8338Z" stroke="#016BDD" stroke-width="1.5" stroke-linecap="round" stroke-linejoin="round"/>
<path d="M6.18366 4.16602H9.45033C11.1753 4.16602 12.0087 4.99937 11.967 6.6827V9.94935C12.0087 11.6744 11.1753 12.5077 9.45033 12.466H6.18366C4.50033 12.4994 3.66699 11.666 3.66699 9.94101V6.67436C3.66699 4.99936 4.50033 4.16602 6.18366 4.16602Z" stroke="#016BDD" stroke-width="1.5" stroke-linecap="round" stroke-linejoin="round"/>
<path d="M9.50833 7.375H6.125" stroke="#016BDD" stroke-width="1.5" stroke-linecap="round" stroke-linejoin="round"/>
<path d="M7.80762 6.80859V7.37525" stroke="#016BDD" stroke-width="1.5" stroke-linecap="round" stroke-linejoin="round"/>
<path d="M8.65788 7.36719C8.65788 8.82552 7.51621 10.0088 6.11621 10.0088" stroke="#016BDD" stroke-width="1.5" stroke-linecap="round" stroke-linejoin="round"/>
<path d="M9.50748 10.0077C8.89915 10.0077 8.34915 9.68268 7.96582 9.16602" stroke="#016BDD" stroke-width="1.5" stroke-linecap="round" stroke-linejoin="round"/>
<path d="M3.66699 15C3.66699 18.225 6.27533 20.8333 9.50033 20.8333L8.62532 19.375" stroke="#016BDD" stroke-width="1.5" stroke-linecap="round" stroke-linejoin="round"/>
<path d="M20.3333 9.99935C20.3333 6.77435 17.725 4.16602 14.5 4.16602L15.375 5.62435" stroke="#016BDD" stroke-width="1.5" stroke-linecap="round" stroke-linejoin="round"/>
</svg>
